# xmcd
#
# Track frame offsets:
#	150
#	11684
#	24098
#	36335
#	50355
#	61681
#	74737
#	92314
#	108004
#	123986
#	139607
#	152630
#	167254
#	178132
#	197271
#	215024
#	228170
#	238666
#	249367
#	264592
#	287941
#
# Disc length: 4440
#
# Revision: 1
# Processed by: cddbd v1.5.1PL0 Copyright (c) Steve Scherf et al.
# Submitted via: audiograbber 1.83.01
# Normalized: r0:DSETVAR1
#
DISCID=12115615
DTITLE=Various Artist - Country Love Songs CD2
DYEAR=1900
DGENRE=Country
TTITLE0=Billie Jo Spears - Stand by your man
TTITLE1=Glen Campbell and Rita Coolidge - Somethin' 'bout you Baby I like
TTITLE2=Willie Nelson and Shirley Collie - Willingly
TTITLE3=Lacy J. Dalton - Still crazy after all these years
TTITLE4=Crystal Gayle - Hello I love you
TTITLE5=Dr Hook - A little bit more
TTITLE6=Gail Davies - The other side of love
TTITLE7=Juice Newton - Lay back in the arms of someone
TTITLE8=Kenny Rogers and Dottie West - Just the way you are
TTITLE9=Cleve Francis and Patti Austin - We fell in love anyway
TTITLE10=Barbara Mandrell - I wish that I could fall in love today
TTITLE11=Dean Miller and Trisha Yearwood - Dreams
TTITLE12=George Jones - Ain't it funny what a fool will do
TTITLE13=Lee Greenwood and Lacy J. Dalton - From now on
TTITLE14=Suzy Bogguss - Someday soon
TTITLE15=Tanya Tucker - One love at a time
TTITLE16=Wanda Jackson - Fancy Satin Pillows
TTITLE17=Jessie Colter - It's morning and I still love you
TTITLE18=Cristy Lane - Simple little words
TTITLE19=Faron Young - Goin' steady
TTITLE20=Daten - Daten-CD
EXTD=
EXTT0=
EXTT1=
EXTT2=
EXTT3=
EXTT4=
EXTT5=
EXTT6=
EXTT7=
EXTT8=
EXTT9=
EXTT10=
EXTT11=
EXTT12=
EXTT13=
EXTT14=
EXTT15=
EXTT16=
EXTT17=
EXTT18=
EXTT19=
EXTT20=
PLAYORDER=
